<svg xmlns="http://www.w3.org/2000/svg" width="533.97" height="477.99" viewBox="0 0 533.97 477.99" fill="currentColor"><path d="M511.5,155.08c-0.21-0.21-0.44-0.41-0.66-0.62L342.3,323V76.87C342.3,34.48,307.82,0,265.43,0 c-18.4,0-35.3,6.5-48.55,17.33l0,0l-0.04,0.04c-3.99,3.26-7.65,6.92-10.91,10.91L22.47,211.73c-29.96,29.96-29.96,78.53,0,108.5 c0.21,0.21,0.44,0.41,0.66,0.62l165.44-165.44v245.71c0,42.39,34.48,76.88,76.87,76.88c22.54,0,42.85-9.76,56.93-25.27 l189.15-189.15C541.46,233.62,541.47,185.04,511.5,155.08z M156.32,144.43c-0.01,0.01-0.03,0.03-0.04,0.04 c-0.1,0.16-0.21,0.32-0.35,0.46l-3.25,3.25L61.96,238.9l-3.25,3.25c-0.15,0.15-0.31,0.27-0.48,0.36c-0.01,0.01-0.02,0.02-0.03,0.03 c-2.88,2.87-7.53,2.87-10.4,0c-2.87-2.87-2.88-7.53,0-10.4c0.01-0.02,0.03-0.03,0.04-0.04c0.09-0.16,0.21-0.31,0.35-0.46l3.26-3.25 l90.72-90.72l3.25-3.25c0.15-0.15,0.31-0.26,0.48-0.36c0.01-0.01,0.02-0.02,0.03-0.03c2.87-2.87,7.53-2.87,10.4,0 C159.2,136.9,159.2,141.56,156.32,144.43z M330.3,401.12c0,35.77-29.1,64.88-64.87,64.88c-35.77,0-64.87-29.1-64.87-64.88V76.87 c0-35.77,29.1-64.87,64.87-64.87c35.77,0,64.87,29.1,64.87,64.87V401.12z M486.17,243.17c-0.01,0.01-0.03,0.03-0.04,0.04 c-0.09,0.16-0.21,0.32-0.35,0.46l-3.25,3.25l-90.72,90.72l-3.25,3.25c-0.15,0.15-0.31,0.26-0.48,0.36 c-0.01,0.01-0.02,0.02-0.03,0.03c-2.87,2.87-7.53,2.87-10.4,0c-2.88-2.87-2.87-7.53,0-10.4c0.01-0.01,0.03-0.03,0.05-0.04 c0.09-0.16,0.21-0.32,0.34-0.46l3.25-3.25l90.72-90.72l3.25-3.25c0.15-0.15,0.31-0.26,0.48-0.36c0.01-0.01,0.02-0.02,0.03-0.03 c2.88-2.87,7.53-2.87,10.4,0C489.04,235.64,489.05,240.3,486.17,243.17z"/><circle cx="264.85" cy="80.73" r="25.5"/><path d="M264.7,380.72c-14.08,0.08-25.44,11.56-25.35,25.65c0.08,14.08,11.56,25.43,25.65,25.35 c14.08-0.08,25.44-11.56,25.35-25.65C290.27,391.99,278.79,380.64,264.7,380.72z"/><path d="M296.38,230.86c-0.64-0.63-1.45-0.95-2.43-0.95l-18.06,0.1l-0.1-17.95c0-0.9-0.35-1.67-1.03-2.31 c-0.68-0.64-1.47-0.95-2.38-0.95l-15.58,0.09c-0.9,0-1.69,0.35-2.37,1.03c-0.67,0.68-1.01,1.47-1,2.37l0.1,17.95l-17.72,0.1 c-0.98,0.01-1.79,0.33-2.42,0.97c-0.64,0.65-0.95,1.46-0.95,2.43l0.09,15.58c0.01,0.91,0.33,1.68,0.97,2.31 c0.64,0.63,1.46,0.95,2.43,0.94l17.73-0.1l0.1,18.06c0,0.9,0.35,1.69,1.03,2.37c0.69,0.67,1.47,1.01,2.38,1v-0.12l15.58-0.09 c0.9-0.01,1.69-0.35,2.36-1.03c0.67-0.69,1.01-1.47,1-2.38l-0.11-18.07l18.06-0.1c0.98,0,1.79-0.33,2.42-0.97 c0.64-0.64,0.95-1.41,0.95-2.32l-0.09-15.58C297.36,232.31,297.03,231.5,296.38,230.86z"/></svg>